<svg width="168" height="32" viewBox="0 0 168 32" fill="none" xmlns="http://www.w3.org/2000/svg">
<path opacity="0.7" d="M13.8889 25.3189C14.5518 25.3189 15.1809 25.2598 15.7729 25.1279C16.3735 24.9957 16.9064 24.7883 17.356 24.4801C17.8056 24.1848 18.1774 23.7792 18.4488 23.2623C18.7198 22.751 18.8495 22.0875 18.8495 21.2841C18.8495 19.7119 18.4071 18.5948 17.5273 17.9168C16.6455 17.2484 15.4697 16.9159 14.0235 16.9159H6.71852V25.3189H13.8889ZM13.5181 12.3292C14.708 12.3292 15.6932 12.0466 16.4742 11.4727C17.247 10.9098 17.6225 9.97687 17.6225 8.69769C17.6225 7.98885 17.4974 7.40111 17.247 6.94561C16.9888 6.49012 16.6455 6.1334 16.2123 5.88433C15.7824 5.62475 15.2968 5.44491 14.7323 5.34876C14.1797 5.23981 13.5992 5.19813 13.0049 5.19813H6.71852V12.3292H13.5181ZM14.3871 0.000328165C15.8461 0.000328165 17.1634 0.126672 18.3677 0.387563C19.5645 0.641235 20.5864 1.06522 21.4499 1.64706C22.3005 2.22758 22.9656 3.00041 23.4418 3.97375C23.9065 4.9333 24.1408 6.13373 24.1408 7.55436C24.1408 9.09083 23.7916 10.3736 23.094 11.3991C22.3917 12.4233 21.3596 13.2634 19.9807 13.9162C21.8587 14.456 23.2492 15.4073 24.1717 16.7584C25.0987 18.1186 25.5519 19.748 25.5519 21.6566C25.5519 23.2045 25.2553 24.5359 24.6642 25.6566C24.0663 26.7911 23.2531 27.7109 22.2506 28.4201C21.2398 29.1361 20.0791 29.6612 18.7789 30.0031C17.4774 30.3468 16.1366 30.5193 14.7904 30.5164H0V0H14.3871V0.000328165ZM42.1036 13.6087C41.3816 12.8103 40.1605 12.3781 38.6703 12.3781C37.7003 12.3781 36.8972 12.5415 36.2553 12.8739C35.6272 13.2021 35.1117 13.611 34.7189 14.0917C34.327 14.5807 34.0593 15.0962 33.9044 15.6479C33.7488 16.1858 33.6563 16.6734 33.6274 17.1046H43.5022C43.3575 15.5563 42.8278 14.4127 42.1036 13.6087ZM35.1301 25.2172C36.0388 26.1045 37.3527 26.5518 39.0549 26.5518C40.2786 26.5518 41.3367 26.2424 42.224 25.6248C43.1035 25.0095 43.6391 24.3502 43.8465 23.6666H49.1906C48.3318 26.3261 47.0283 28.2251 45.2494 29.3678C43.493 30.5161 41.3491 31.0884 38.8521 31.0884C37.1115 31.0884 35.5452 30.8058 34.1397 30.2516C32.7338 29.6897 31.559 28.9018 30.5705 27.8753C29.6074 26.8439 28.8601 25.6248 28.3272 24.194C27.7998 22.7697 27.533 21.1926 27.533 19.4835C27.533 17.8312 27.8103 16.2875 28.3492 14.8613C28.9005 13.4302 29.6619 12.1949 30.6631 11.1589C31.6679 10.1173 32.8578 9.2956 34.2437 8.69539C35.6308 8.09616 37.1591 7.79622 38.8521 7.79622C40.7213 7.79622 42.3586 8.15556 43.7618 8.88901C45.1604 9.61097 46.3064 10.5899 47.2079 11.8162C48.1083 13.0406 48.7492 14.4406 49.1499 16.0095C49.5464 17.5772 49.6865 19.2147 49.572 20.9297H33.6271C33.6271 22.6759 34.2178 24.3295 35.1301 25.2172ZM58.1919 0.000328165V11.5064H58.331C59.1015 10.2263 60.0762 9.2956 61.2743 8.71869C62.4701 8.13685 63.6371 7.84938 64.7735 7.84938C66.3947 7.84938 67.7228 8.06269 68.7598 8.50177C69.7981 8.94906 70.6195 9.5542 71.221 10.3408C71.8107 11.1241 72.2278 12.0801 72.4726 13.2063C72.7122 14.3303 72.8362 15.5704 72.8362 16.9376V30.5164H66.7376V18.0396C66.7376 16.2205 66.4537 14.8531 65.8883 13.9585C65.3219 13.0626 64.3161 12.613 62.8653 12.613C61.2244 12.613 60.0378 13.1102 59.303 14.0917C58.5548 15.0729 58.1919 16.6885 58.1919 18.9364V30.5164H52.0955V0H58.1919V0.000328165ZM89.1145 20.2517C88.7371 20.3768 88.3184 20.4824 87.8872 20.574C87.4257 20.6597 86.9617 20.7309 86.4958 20.7873C86.0122 20.8435 85.5304 20.9134 85.0509 20.997C84.5967 21.0859 84.1425 21.1972 83.71 21.3422C83.2699 21.4859 82.884 21.6769 82.5663 21.9181C82.2385 22.1623 81.9684 22.4756 81.7751 22.8357C81.5802 23.2042 81.4762 23.6827 81.4762 24.2484C81.4762 24.7883 81.5802 25.2438 81.7748 25.6179C81.9756 25.9887 82.2375 26.2785 82.5814 26.4928C82.9243 26.7071 83.3263 26.8577 83.774 26.9414C84.2281 27.0316 84.6974 27.0654 85.1785 27.0654C86.3717 27.0654 87.2919 26.8672 87.9476 26.4698C88.6 26.0698 89.0916 25.5926 89.3984 25.0364C89.7115 24.4801 89.9005 23.9193 89.9615 23.3539C90.0416 22.7848 90.0777 22.326 90.0777 21.9818V19.7119C89.8145 19.9449 89.505 20.1244 89.1145 20.2517ZM77.169 11.6538C77.7762 10.7224 78.5919 9.94518 79.5515 9.38355C80.5202 8.80926 81.6025 8.40463 82.819 8.16245C84.0216 7.91644 85.2462 7.79373 86.4738 7.79622C87.5804 7.79622 88.6997 7.87268 89.8529 8.0302C90.987 8.18673 92.0244 8.49389 92.9652 8.95136C93.9051 9.41144 94.671 10.0409 95.264 10.8623C95.8655 11.663 96.1704 12.7476 96.1704 14.0917V25.6074C96.1704 26.6086 96.2305 27.56 96.3371 28.4709C96.4575 29.3898 96.7693 30.0789 97.0637 30.5312L90.8646 30.5161C90.6825 30.2519 90.5319 29.8381 90.461 29.4778C90.3883 29.119 90.3385 28.756 90.3117 28.3909C89.3462 29.3898 88.2144 30.0921 86.8955 30.4928C85.595 30.888 84.2432 31.0887 82.884 31.0884C81.8339 31.0884 80.8559 30.9552 79.9407 30.6979C79.0392 30.4406 78.2385 30.0422 77.5559 29.5033C76.87 28.954 76.3427 28.2727 75.9577 27.4477C75.5758 26.6181 75.3785 25.6307 75.3785 24.4906C75.3785 23.2321 75.6046 22.1961 76.0506 21.3849C76.4851 20.574 77.0495 19.9213 77.7554 19.4382C78.4495 18.9515 79.2466 18.5853 80.1494 18.3467C81.0394 18.1046 81.9419 17.9108 82.8528 17.7662C83.7671 17.6261 84.6567 17.5125 85.5457 17.4242C86.4367 17.3373 87.2085 17.2136 87.898 17.0396C88.578 16.8703 89.1227 16.613 89.5224 16.2875C89.9152 15.961 90.1043 15.4858 90.0777 14.8531C90.0777 14.1994 89.9615 13.6782 89.7518 13.2887C89.5535 12.9216 89.2622 12.6131 88.9071 12.3941C88.5494 12.1785 88.1458 12.0374 87.6811 11.9619C87.1818 11.8902 86.678 11.8546 86.1735 11.8553C84.9859 11.8553 84.046 12.1195 83.3798 12.6271C82.695 13.1496 82.3012 14.0094 82.1794 15.2098H76.0913C76.1792 13.7767 76.5317 12.5933 77.169 11.6538ZM105.272 8.42662V11.5064H105.408C106.176 10.2263 107.167 9.2956 108.397 8.71869C109.618 8.13685 110.882 7.84938 112.164 7.84938C113.792 7.84938 115.128 8.06269 116.16 8.50177C117.211 8.94906 118.028 9.5542 118.62 10.3408C119.227 11.1241 119.644 12.0801 119.888 13.2063C120.133 14.3303 120.255 15.5704 120.255 16.9376V30.5164H114.154V18.0396C114.154 16.2205 113.868 14.8531 113.299 13.9585C112.722 13.0626 111.727 12.4883 110.265 12.4883C108.614 12.4883 107.411 13.1102 106.672 14.0917C105.928 15.0729 105.56 16.6885 105.56 18.9364V30.5164H99.5249V8.42662H105.272ZM133.759 12.3781C132.784 12.3781 131.978 12.5933 131.331 13.041C130.67 13.4823 130.118 14.0677 129.716 14.7533C129.303 15.4497 129.016 16.2202 128.839 17.0639C128.674 17.9063 128.581 18.7408 128.581 19.5704C128.581 20.3722 128.674 21.1847 128.839 22.0143C129.016 22.8393 129.289 23.5842 129.674 24.2632C130.061 24.9255 130.597 25.4886 131.239 25.9076C131.891 26.3375 132.685 26.5518 133.627 26.5518C135.088 26.5518 136.208 26.1439 136.992 25.3363C137.774 24.5241 138.257 23.4326 138.46 22.0652H144.321C143.919 24.9957 142.779 27.2344 140.903 28.7778C139.02 30.311 136.609 31.0884 133.672 31.0884C132.013 31.0884 130.506 30.8058 129.115 30.2516C127.727 29.6897 126.548 28.9159 125.578 27.917C124.606 26.9158 123.853 25.7258 123.301 24.3423C122.763 22.9561 122.492 21.4348 122.492 19.7838C122.492 18.0734 122.743 16.4801 123.242 15.0073C123.74 13.5404 124.474 12.2691 125.453 11.2029C126.423 10.1298 127.61 9.2956 129.013 8.69539C130.41 8.09616 132.007 7.79622 133.8 7.79622C135.112 7.79622 136.371 7.97343 137.588 8.30487C138.795 8.64321 139.881 9.16598 140.833 9.86694C141.786 10.5596 142.582 11.4452 143.17 12.466C143.762 13.5007 144.1 14.7405 144.194 16.1579H138.243C137.849 13.6362 136.354 12.3781 133.759 12.3781ZM32.3863 2.04742H44.7561V5.05932H32.3863V2.04742ZM160.496 13.6087C159.764 12.8103 158.534 12.3781 157.062 12.3781C156.093 12.3781 155.288 12.5415 154.635 12.8739C154.005 13.2021 153.43 13.611 153.045 14.0917C152.659 14.5807 152.382 15.0962 152.221 15.6479C152.077 16.1858 151.976 16.6734 151.95 17.1046H161.899C161.736 15.5563 161.22 14.4127 160.495 13.6087H160.496ZM153.447 25.2172C154.359 26.1045 155.735 26.5518 157.45 26.5518C158.672 26.5518 159.727 26.2424 160.609 25.6248C161.491 25.0095 162.038 24.3502 162.233 23.6666H167.577C166.723 26.3261 165.411 28.2251 163.644 29.3678C161.88 30.5161 159.746 31.0884 157.239 31.0884C155.494 31.0884 153.922 30.8058 152.527 30.2516C151.123 29.6897 149.947 28.9018 148.964 27.8753C147.99 26.8439 147.244 25.6248 146.713 24.194C146.186 22.7697 145.924 21.1926 145.924 19.4835C145.924 17.8312 146.195 16.2875 146.735 14.8613C147.282 13.4302 148.06 12.1949 149.055 11.1589C150.064 10.1173 151.244 9.2956 152.626 8.69539C154.014 8.09616 155.556 7.79622 157.239 7.79622C159.106 7.79622 160.751 8.15556 162.14 8.88901C163.542 9.61097 164.694 10.5899 165.588 11.8162C166.489 13.0406 167.136 14.4406 167.534 16.0095C167.925 17.5772 168.076 19.2147 167.964 20.9297H151.95C151.95 22.6759 152.532 24.3295 153.447 25.2172Z" fill="white"/>
</svg>
