<svg width="168" height="42" viewBox="0 0 168 42" fill="none" xmlns="http://www.w3.org/2000/svg">
<path opacity="0.7" d="M51.3299 16.5116C53.2527 16.5116 54.8113 14.9524 54.8113 13.0292C54.8113 11.1058 53.2527 9.54685 51.3299 9.54685C49.4071 9.54685 47.8485 11.1058 47.8485 13.0292C47.8485 14.9524 49.4071 16.5116 51.3299 16.5116ZM166.226 28.4097C165.696 28.0373 165.288 27.9756 164.948 28.6988C159.101 41.3631 149.248 35.0434 150.226 35.5996C152.412 34.5998 158.16 29.9897 157.291 23.6241C156.764 19.7338 153.425 18.0082 149.881 18.6261C143.694 19.7046 141.418 26.3773 142.577 32.2849C142.78 33.2995 143.142 34.1362 143.504 34.9558C136.513 40.6409 133.737 29.8666 133.422 28.5791C133.409 28.5102 138.82 24.0004 140.324 13.254C141.902 1.99112 138.309 -0.0596606 134.635 0.00432376C127.836 0.122777 125.999 14.3276 128.467 26.1664C128.26 26.2202 127.298 26.753 125.752 26.8128C124.64 23.3127 119.887 20.2447 118.643 21.4269C115.53 24.3843 119.398 30.1662 122.12 30.6197C120.485 40.6901 110.26 38.1961 112.163 25.5793C115.493 19.3958 118.025 10.2015 117.574 4.6509C117.414 2.68576 115.961 0.0528862 112.675 0.18348C106.355 0.433511 105.668 14.6423 106.409 24.7269C106.372 24.4785 106.02 25.9521 103.43 26.6848C102.818 23.2844 97.3425 19.8713 96.0536 21.5122C93.6409 24.5835 97.8222 30.0596 99.8027 30.4415C98.1677 40.5116 87.9427 38.0176 89.8461 25.4008C93.1759 19.2177 95.7081 10.0233 95.2562 4.47273C95.0961 2.50726 93.6435 -0.125614 90.3573 0.00465188C84.0373 0.255011 83.3502 14.4638 84.0911 24.5484C84.0541 24.2961 83.6941 25.8182 80.9986 26.5388C80.9083 22.1271 75.4132 20.1043 74.0932 21.5119C71.7405 24.0211 74.632 29.1694 77.3068 30.4415C75.6718 40.5116 65.4468 38.0176 67.3502 25.4008C70.68 19.2177 73.2125 10.0233 72.7603 4.47273C72.6005 2.50726 71.1476 -0.125614 67.8614 0.00465188C61.5418 0.255011 61.0332 15.1781 61.7741 25.2624C59.6924 34.1811 52.7116 45.319 53.6185 23.0075C53.7081 21.4424 53.8059 20.8481 53.0256 20.2621C52.4409 19.8066 51.1113 20.0258 50.3845 20.0439C49.5012 20.0793 49.2797 20.5961 49.0845 21.3774C48.6297 23.3947 48.548 25.3503 48.483 28.0186C48.4404 29.2668 48.3403 29.8492 47.8596 31.5512C47.3796 33.2529 44.6407 36.3632 43.1412 35.8431C41.0609 35.1278 41.7434 29.255 42.1332 25.2201C42.458 22.0313 41.4179 20.5994 38.7528 20.0787C37.1926 19.7535 36.2447 19.8034 34.6198 19.2912C33.0832 18.8069 32.7357 15.9003 29.4584 16.8689C27.6658 17.3992 28.8182 21.1972 28.3874 24.0122C26.2693 37.8594 21.8623 38.2397 19.8177 31.5132C29.0259 8.96081 22.4815 0.0699487 18.6506 0.0699487C14.6606 0.0699487 10.0997 2.81832 12.031 20.4032C11.0919 20.1292 10.8032 19.9815 9.77516 19.9815C3.96112 19.9815 0 24.6816 0 30.4796C0 36.2775 3.96145 40.9779 9.77549 40.9779C13.2077 40.9779 15.6174 39.417 17.4425 37.0023C18.6332 38.7076 20.0832 41.0042 22.7348 40.9008C30.6383 40.593 32.9368 24.3807 33.2082 23.4764C34.0531 23.6067 34.8524 23.8531 35.6327 23.9833C36.9327 24.1786 37.0272 24.6931 36.9977 26.0007C36.6532 37.027 38.6879 40.8877 43.3033 40.8877C45.8748 40.8877 48.1667 38.3611 49.7457 36.5545C50.925 38.9885 52.8041 40.8132 55.3251 40.8873C61.4338 41.0393 63.7727 31.3028 63.5594 32.5842C63.3921 33.5895 65.5413 40.8326 71.8301 40.8588C79.6201 40.8916 81.0681 32.3249 81.2407 30.89C81.2624 30.6046 81.2719 30.6341 81.2407 30.89L81.2348 30.977C83.7079 30.517 84.984 29.191 84.984 29.191C84.984 29.191 86.9698 40.992 94.3257 40.8591C101.964 40.7207 103.405 32.9769 103.594 31.4669C103.619 31.1086 103.634 31.1506 103.594 31.4669C103.593 31.4817 103.592 31.4964 103.591 31.5112C106.529 30.4425 107.301 29.3698 107.301 29.3698C107.301 29.3698 108.88 40.9362 116.643 41.0373C123.561 41.1279 126.125 34.0433 126.14 31.0781C127.307 31.0905 129.466 30.3857 129.415 30.3457C129.415 30.3457 131.949 40.4585 139.026 40.9779C142.348 41.2217 144.841 39.1083 146.262 38.1442C149.601 40.8483 160.719 44.3021 167.74 32.3994C168.731 30.6912 166.6 28.6732 166.226 28.4097ZM9.49494 37.0516C6.10279 37.0516 3.92765 33.915 3.92765 30.533C3.92765 27.1514 5.92429 24.0148 9.31644 24.0148C10.8429 24.0148 11.6921 24.1828 12.8809 25.2168C13.0964 26.0663 13.7074 28.0258 14.0047 28.9157C14.403 30.1065 14.8768 31.1201 15.3546 32.2232C14.6721 35.0526 12.4346 37.0516 9.49494 37.0516ZM17.7611 25.3162C17.62 25.0914 17.6495 25.2296 17.4917 25.0173C16.8699 23.3258 15.6716 19.5504 15.5328 15.2621C15.3759 10.4111 16.1844 4.72505 18.5679 4.72505C20.183 4.72505 21.8994 16.2488 17.7607 25.3162H17.7611ZM65.5232 20.2618C65.1406 17.3831 65.1206 4.55016 68.2014 4.90355C69.9024 5.59262 67.1228 17.7021 65.5232 20.2618ZM88.0191 20.2618C87.6365 17.3831 87.6165 4.55016 90.6973 4.90355C92.3983 5.59262 89.6187 17.7021 88.0191 20.2618ZM110.337 20.4406C109.954 17.5616 109.934 4.72866 113.014 5.08205C114.715 5.77112 111.936 17.8809 110.337 20.4406ZM134.975 4.15248C137.791 3.86045 137.675 16.1605 132.022 23.9259C131.293 21.1191 130.175 5.11618 134.975 4.15215V4.15248ZM146.813 30.6197C145.909 26.0499 148.246 23.0485 150.656 22.7194C151.498 22.5849 152.719 23.1306 152.963 24.1507C153.363 26.0732 152.904 28.9249 147.511 32.5431C147.519 32.574 147.015 31.6375 146.814 30.6197H146.813Z" fill="white"/>
</svg>
