<svg width="168" height="43" viewBox="0 0 168 43" fill="none" xmlns="http://www.w3.org/2000/svg">
<path opacity="0.7" d="M54.2473 16.5237C54.2473 13.5099 51.3165 10.309 46.2453 10.309C40.5503 10.309 34.2943 14.4867 33.3382 22.8211C32.3613 31.2388 37.5989 34.9801 42.8781 34.9801C48.1576 34.9801 50.9217 32.9224 53.7485 30.179C51.3164 27.1235 48.1783 28.537 47.5755 28.8488C46.9104 29.1811 46.0582 29.6385 44.3123 29.6385C42.2753 29.6385 40.197 28.7241 40.197 24.9204C53.2498 23.6319 54.2473 19.5372 54.2473 16.5237ZM47.7832 17.0225C47.7002 17.9576 47.3261 19.5582 40.7167 20.4517C42.1093 15.5052 44.7694 15.1312 45.9959 15.1312C47.1391 15.1312 47.8662 16.0246 47.7832 17.0225ZM25.6686 17.8329C25.6686 17.8329 22.8631 26.6454 22.6341 27.3728C22.551 26.6247 20.4934 10.8078 20.4934 10.8078C15.7129 10.8078 13.1565 14.2163 11.8056 17.8123C11.8056 17.8123 8.39672 26.6454 8.106 27.3935C8.085 26.7077 7.58625 17.9163 7.58625 17.9163C7.2952 13.5096 3.2632 10.8288 0 10.8288L3.94898 34.7931C8.95814 34.7724 11.6599 31.3845 13.0735 27.7886C13.0735 27.7886 16.087 19.9946 16.2117 19.6412C16.2327 19.9736 18.3734 34.7931 18.3734 34.7931C23.4032 34.7931 26.1053 31.6129 27.5602 28.142L34.606 10.8288C29.6382 10.8288 27.0198 14.2163 25.6686 17.8329ZM72.7036 10.2674C69.6068 10.2674 67.2374 11.951 65.2421 14.4244V14.4037L67.0297 0C62.9144 0 59.5681 3.57492 58.9237 8.89547L55.8059 34.606C58.1756 34.606 60.6903 33.9202 62.0412 32.1743C63.2467 33.7329 65.055 34.9801 67.7362 34.9801C74.6783 34.9801 79.4377 26.9158 79.4377 19.3502C79.3964 12.4497 76.0499 10.2677 72.7036 10.2677V10.2674ZM72.0595 22.6344C71.3321 26.8534 68.9834 29.7219 66.7177 29.7219C64.4316 29.7219 63.4548 28.7031 63.4548 28.7031C63.8912 25.0035 64.1612 22.7381 64.9927 20.7844C65.8242 18.8308 67.7985 15.7129 69.8562 15.7129C71.8722 15.7129 72.787 18.394 72.0595 22.6341V22.6344ZM96.7719 10.8281H91.9291L91.9501 10.5788C92.2825 7.41956 93.0307 5.75695 95.5041 5.48691C97.1877 5.32055 97.9358 4.44741 98.1228 3.49158C98.2685 2.74345 98.7256 0.145031 98.7256 0.145031C88.9986 0.0826875 85.9435 4.28137 85.1537 10.6828L85.1327 10.8285H85.0287C83.4491 10.8285 81.7035 12.6158 81.4124 14.8811L81.3084 15.7126H84.5509L81.8281 38.2013L80.9967 42.2336C81.1007 42.2336 81.2254 42.2543 81.3291 42.2543C85.8811 42.0879 88.7906 38.4923 89.4351 33.2755L91.5551 15.7126H93.0723C94.5686 15.7126 96.3149 14.2163 96.6266 11.7219L96.7719 10.8285V10.8281ZM121.963 10.4127C116.371 10.4127 111.092 14.5281 109.471 20.9918C107.85 27.4559 110.302 35.1045 118.533 35.1045C126.743 35.1045 131.482 27.1441 131.482 20.5137C131.482 13.925 127.013 10.4127 121.963 10.4127ZM124.228 22.426C123.937 25.3565 122.649 29.8046 119.115 29.8046C115.561 29.8046 116.06 24.6084 116.413 22.135C116.787 19.4955 118.263 15.7333 121.443 15.7333C124.29 15.7333 124.561 19.1212 124.228 22.426ZM159.105 17.8326C159.105 17.8326 156.298 26.6451 156.07 27.3725C155.987 26.6244 153.929 10.8075 153.929 10.8075C149.149 10.8075 146.592 14.216 145.241 17.8119C145.241 17.8119 141.832 26.6451 141.542 27.3932C141.521 26.7074 141.022 17.916 141.022 17.916C140.731 13.5092 136.699 10.8285 133.436 10.8285L137.364 34.7927C142.373 34.7721 145.075 31.3842 146.488 27.7883C146.488 27.7883 149.502 19.9943 149.606 19.6409C149.627 19.9733 151.767 34.7927 151.767 34.7927C156.797 34.7927 159.499 31.6125 160.954 28.1416L168 10.8288C163.053 10.8288 160.434 14.2163 159.105 17.8329V17.8326ZM101.345 0.145359L97.2707 33.0054L96.4396 37.0584C96.5432 37.0584 96.6679 37.0794 96.7719 37.0794C101.157 37.0171 104.275 33.1718 104.857 28.329L107.206 9.47756C107.912 3.72028 104.483 0.145688 101.345 0.145688V0.145359Z" fill="white"/>
</svg>
